<svg width="1019" height="537" viewBox="0 0 1019 537" fill="none" xmlns="http://www.w3.org/2000/svg">
<path d="M929.627 325.881C914.805 325.881 901.986 322.732 891.172 316.434C880.421 310.072 872.119 301.23 866.266 289.906C860.414 278.519 857.487 265.319 857.487 250.306C857.487 235.165 860.414 221.933 866.266 210.61C872.119 199.222 880.421 190.38 891.172 184.082C901.986 177.72 914.805 174.54 929.627 174.54C944.449 174.54 957.236 177.72 967.987 184.082C978.802 190.38 987.135 199.222 992.988 210.61C998.841 221.933 1001.77 235.165 1001.77 250.306C1001.77 265.319 998.841 278.519 992.988 289.906C987.135 301.23 978.802 310.072 967.987 316.434C957.236 322.732 944.449 325.881 929.627 325.881ZM929.818 294.391C936.561 294.391 942.191 292.482 946.708 288.666C951.224 284.785 954.628 279.505 956.918 272.825C959.272 266.146 960.449 258.544 960.449 250.019C960.449 241.495 959.272 233.893 956.918 227.213C954.628 220.534 951.224 215.253 946.708 211.373C942.191 207.492 936.561 205.552 929.818 205.552C923.011 205.552 917.286 207.492 912.642 211.373C908.061 215.253 904.594 220.534 902.241 227.213C899.951 233.893 898.805 241.495 898.805 250.019C898.805 258.544 899.951 266.146 902.241 272.825C904.594 279.505 908.061 284.785 912.642 288.666C917.286 292.482 923.011 294.391 929.818 294.391Z" fill="black"/>
<path d="M780.955 325.881C766.133 325.881 753.314 322.732 742.5 316.434C731.749 310.072 723.447 301.23 717.594 289.906C711.742 278.519 708.815 265.319 708.815 250.306C708.815 235.165 711.742 221.933 717.594 210.61C723.447 199.222 731.749 190.38 742.5 184.082C753.314 177.72 766.133 174.54 780.955 174.54C795.778 174.54 808.564 177.72 819.315 184.082C830.13 190.38 838.463 199.222 844.316 210.61C850.169 221.933 853.095 235.165 853.095 250.306C853.095 265.319 850.169 278.519 844.316 289.906C838.463 301.23 830.13 310.072 819.315 316.434C808.564 322.732 795.778 325.881 780.955 325.881ZM781.146 294.391C787.889 294.391 793.519 292.482 798.036 288.666C802.553 284.785 805.956 279.505 808.246 272.825C810.6 266.146 811.777 258.544 811.777 250.019C811.777 241.495 810.6 233.893 808.246 227.213C805.956 220.534 802.553 215.253 798.036 211.373C793.519 207.492 787.889 205.552 781.146 205.552C774.339 205.552 768.614 207.492 763.97 211.373C759.39 215.253 755.923 220.534 753.569 227.213C751.279 233.893 750.134 241.495 750.134 250.019C750.134 258.544 751.279 266.146 753.569 272.825C755.923 279.505 759.39 284.785 763.97 288.666C768.614 292.482 774.339 294.391 781.146 294.391Z" fill="black"/>
<path d="M691.291 127.592C695.157 127.592 698.291 130.726 698.291 134.592V316.018C698.291 319.884 695.157 323.018 691.291 323.018H664.641C660.775 323.018 657.641 319.884 657.641 316.018V134.592C657.641 130.726 660.775 127.592 664.641 127.592H691.291Z" fill="black"/>
<path d="M479.465 323.018C476.307 323.018 473.54 320.903 472.711 317.856L436.634 185.286C435.422 180.834 438.774 176.448 443.388 176.448H469.786C473.046 176.448 475.875 178.699 476.607 181.875L497.916 274.271C498.004 274.654 498.345 274.925 498.738 274.925C499.128 274.925 499.467 274.657 499.558 274.278L521.778 181.813C522.534 178.666 525.348 176.448 528.584 176.448H557.942C561.165 176.448 563.972 178.649 564.74 181.779L587.331 273.755C587.417 274.106 587.732 274.352 588.093 274.352C588.459 274.352 588.776 274.099 588.857 273.742L609.806 181.892C610.532 178.707 613.364 176.448 616.631 176.448H642.925C647.538 176.448 650.889 180.831 649.681 185.282L613.69 317.852C612.862 320.901 610.094 323.018 606.935 323.018H574.596C571.44 323.018 568.675 320.907 567.843 317.863L544.299 231.714C544.158 231.197 543.689 230.839 543.154 230.839C542.619 230.839 542.149 231.197 542.008 231.714L518.464 317.863C517.633 320.907 514.867 323.018 511.712 323.018H479.465Z" fill="black"/>
<path d="M929.739 512.341C914.726 512.341 901.812 509.16 890.998 502.798C880.247 496.373 871.977 487.467 866.188 476.08C860.462 464.693 857.6 451.588 857.6 436.766C857.6 421.753 860.494 408.584 866.283 397.261C872.136 385.874 880.438 376.999 891.188 370.638C901.939 364.213 914.726 361 929.549 361C942.335 361 953.532 363.322 963.137 367.966C972.743 372.61 980.345 379.13 985.944 387.528C990.3 394.062 993.134 401.482 994.447 409.787C995.073 413.743 991.841 417.109 987.837 417.109H962.881C959.41 417.109 956.552 414.531 955.489 411.227C953.99 406.569 951.578 402.645 948.251 399.455C943.671 394.939 937.659 392.68 930.216 392.68C923.919 392.68 918.416 394.398 913.708 397.833C909.064 401.205 905.438 406.135 902.83 412.624C900.222 419.113 898.918 426.969 898.918 436.193C898.918 445.545 900.19 453.497 902.735 460.049C905.343 466.601 909.001 471.595 913.708 475.03C918.416 478.466 923.919 480.183 930.216 480.183C934.86 480.183 939.027 479.229 942.717 477.321C946.47 475.412 949.556 472.645 951.973 469.019C953.453 466.818 954.627 464.357 955.496 461.636C956.551 458.331 959.409 455.755 962.879 455.755H987.791C991.813 455.755 995.048 459.148 994.402 463.118C993.065 471.326 990.277 478.732 986.039 485.336C980.632 493.797 973.157 500.413 963.615 505.184C954.072 509.955 942.781 512.341 929.739 512.341Z" fill="black"/>
<path d="M781.14 512.341C766.127 512.341 753.213 509.16 742.398 502.799C731.647 496.373 723.377 487.467 717.588 476.08C711.863 464.693 709 451.588 709 436.766C709 421.753 711.894 408.584 717.683 397.261C723.536 385.874 731.838 376.999 742.589 370.638C753.34 364.213 766.127 361 780.949 361C793.736 361 804.932 363.322 814.538 367.966C824.144 372.61 831.746 379.13 837.344 387.528C841.7 394.062 844.535 401.482 845.848 409.788C846.473 413.743 843.242 417.109 839.237 417.109H814.281C810.811 417.109 807.952 414.531 806.889 411.227C805.391 406.569 802.978 402.645 799.652 399.456C795.072 394.939 789.06 392.68 781.617 392.68C775.319 392.68 769.816 394.398 765.109 397.833C760.465 401.205 756.839 406.135 754.23 412.624C751.622 419.113 750.318 426.969 750.318 436.193C750.318 445.545 751.59 453.497 754.135 460.049C756.743 466.601 760.401 471.595 765.109 475.031C769.816 478.466 775.319 480.183 781.617 480.183C786.261 480.183 790.428 479.229 794.117 477.321C797.871 475.412 800.956 472.645 803.373 469.019C804.853 466.818 806.027 464.357 806.896 461.636C807.951 458.331 810.809 455.755 814.279 455.755H839.191C843.213 455.755 846.448 459.148 845.802 463.118C844.465 471.326 841.678 478.732 837.439 485.336C832.032 493.797 824.557 500.413 815.015 505.184C805.473 509.955 794.181 512.341 781.14 512.341Z" fill="black"/>
<path fill-rule="evenodd" clip-rule="evenodd" d="M53.594 165.257V73.7465H49.7274V165.257C49.3756 165.826 49.0811 166.258 48.8185 166.644C47.9924 167.856 47.4833 168.603 46.5052 171.701C46.5052 174.411 47.5027 176.001 48.5384 177.651C49.2265 178.748 49.9314 179.871 50.3718 181.368C50.3718 182.657 49.7274 185.879 47.7941 189.101C45.8607 192.323 42.6386 201.99 41.9941 204.567C40.7052 206.501 33.7686 211.119 32.3275 211.012C32.0467 210.563 31.907 210.34 31.8266 210.097C31.747 209.856 31.7256 209.596 31.6831 209.079C31.6346 208.488 32.3112 207.76 33.0567 206.957C33.9334 206.014 34.9053 204.968 34.9053 203.923C34.9053 201.99 32.9318 197.903 29.7686 196.119C29.6027 196.025 29.4391 195.93 29.2759 195.836L29.2752 195.835L29.2745 195.835C27.1376 194.596 25.058 193.39 18.7943 195.545C12.7686 197.619 10.2686 200.619 8.48328 205.212C7.83884 207.145 7.83884 211.656 8.48328 213.59C9.12772 214.234 10.2555 214.878 11.3832 215.523C12.511 216.167 13.6388 216.812 14.2832 217.456C15.3143 218.487 15.5721 220.034 15.5721 220.678C15.401 220.935 15.1091 221.34 14.7384 221.853L14.7376 221.854C12.8743 224.436 9.02068 229.776 8.48328 233C8.48328 239.577 11.5 248 15.2832 258C18.3018 265.979 20.0495 268.59 22.5085 272.265L22.5112 272.269C22.671 272.507 22.8337 272.751 23 273C24.9332 275.9 30.3942 281.256 32.3275 281.9C32.0965 282.131 31.3686 282.528 30.5001 283.001L30.4994 283.001L30.4988 283.002L30.4986 283.002C28.9445 283.849 26.9409 284.94 26.5276 285.767C26.5276 286.002 26.506 286.777 26.4748 287.901C26.335 292.923 26.001 304.927 26.5276 307.033C27.8165 308.322 36.1942 310.9 36.8386 309.611C37.0195 309.249 37.2512 308.887 37.5194 308.468L37.5196 308.468C38.2068 307.395 39.1338 305.948 40.0608 303.167C41.0919 300.073 43.0682 297.152 43.9274 296.078C44.0676 295.903 44.2391 295.677 44.438 295.415C45.8958 293.493 48.8253 289.633 51.6607 289.633C53.2686 289.619 54.093 289.877 55.5273 291.567C56.0535 292.187 56.512 292.848 57.0156 293.574L57.0162 293.575L57.0163 293.575L57.0164 293.575C58.1793 295.251 59.583 297.275 62.6161 299.944C66.7686 303.167 73.3568 303.167 76.7938 303.167C77.8679 303.596 80.6604 304.584 83.2382 305.1L83.3047 305.3L83.3436 305.417C83.8859 307.056 84.8648 310.013 86.2686 312.119C87.9353 314.619 99.3492 325.722 107.727 333.455C111.957 337.904 113.299 341.151 113.527 341.833C113.722 342.418 113.858 343.181 114.007 344.013C114.348 345.93 114.757 348.218 116.105 349.566C117.422 350.883 120.234 351.602 122.301 352.13C123.268 352.378 124.071 352.583 124.482 352.788C125.127 353.111 126.416 353.916 127.704 354.722C128.993 355.527 130.282 356.333 130.927 356.655C132.216 357.299 139.304 357.299 140.593 356.655C141.882 356.011 146.393 352.788 145.749 351.499C145.104 350.211 136.082 344.411 132.86 343.122C130.543 342.195 127.558 338.601 125.346 335.937C124.482 334.896 123.736 333.998 123.193 333.455C121.26 333.455 119.971 332.811 118.682 332.166C117.393 331.522 99.3492 303.167 98.7047 301.878C98.2214 300.911 97.7381 298.857 97.2547 296.803C97.0936 296.118 96.9325 295.433 96.7714 294.789C96.4154 293.365 95.4694 292.334 94.5853 291.371C93.8689 290.59 93.1932 289.854 92.9048 288.989C92.5826 288.022 92.5826 287.539 92.5826 287.056C92.5826 286.572 92.5826 286.089 92.2603 285.122C91.7407 284.083 86.1938 280.53 83.0508 278.517L83.0499 278.517L83.0477 278.515L83.0384 278.509C82.289 278.029 81.6773 277.637 81.3049 277.389C81.9493 276.745 82.5938 276.422 83.2382 276.1C83.8826 275.778 84.5271 275.456 85.1715 274.811C85.4568 274.811 86.1384 274.843 87.0478 274.885L87.0554 274.885L87.0559 274.885H87.0561C90.2567 275.034 96.2646 275.313 97.7686 274.811C98.7399 273.391 99.116 272.189 99.4355 271.168C99.6094 270.612 99.7665 270.11 99.9936 269.656C100.651 270.24 101.579 271.11 102.618 272.085L102.619 272.086L102.619 272.086L102.621 272.087L102.621 272.088C104.636 273.977 107.069 276.259 108.769 277.619C111.493 279.798 116.851 282.239 120.812 284.044C122.306 284.725 123.602 285.315 124.482 285.767C124.37 286.477 124.376 286.505 124.406 286.662C124.434 286.804 124.482 287.05 124.482 288C124.965 292.011 125.769 292.789 129.5 293.5C132.587 293.5 133.729 293.111 136.013 292.333L136.014 292.333L136.014 292.333C136.32 292.229 136.646 292.118 137 292C138.252 291.69 139.379 291.816 140.632 291.956C141.88 292.096 143.253 292.25 145 292C149.231 290.381 151 288.5 151.269 287.119C149.08 285.048 147.059 284.615 144.332 284.03L144.331 284.03C143.609 283.875 142.837 283.709 142 283.5C141.689 283.472 141.392 283.445 141.109 283.419L141.109 283.419C137.963 283.134 136.516 283.002 135.153 282.591C133.991 282.241 132.891 281.687 130.852 280.661L130.769 280.619C130.553 280.49 130.364 280.375 130.198 280.275L130.197 280.275L130.197 280.274C129.262 279.709 129.031 279.57 128.887 279.632C128.841 279.652 128.803 279.694 128.753 279.749C128.666 279.845 128.542 279.982 128.269 280.119C127.46 279.455 124.626 276.861 120.973 273.518L120.972 273.517L120.972 273.517C112.543 265.803 99.7547 254.099 97.4158 252.9C95.3536 251.869 90.9714 252.471 89.0381 252.9C88.9079 252.764 88.8406 252.577 88.7636 252.363C88.6811 252.134 88.5875 251.874 88.3936 251.611C86.8893 251.611 83.4097 252.489 80.0041 253.349L80.0039 253.349C77.5739 253.962 75.1816 254.565 73.5715 254.834C69.7049 255.478 64.7686 255.266 62.6161 254.189C59.5882 252.675 58.1331 249.154 57.0224 246.466C56.7217 245.738 56.4463 245.072 56.1717 244.523C55.1406 242.46 53.2686 232.119 53.2686 227.119V212.619C53.2686 207.119 53.2686 192.119 54.2384 189.745C54.5764 188.918 55.015 187.479 55.4527 186.043L55.4527 186.042C55.9618 184.372 56.4696 182.705 56.8162 182.012C57.7686 177.619 58.2686 173.619 57.7686 170.119C56.2686 167.619 55.2686 166.619 53.594 165.257ZM49.7265 227.123V214.879C47.7932 218.316 43.9265 225.963 43.9265 229.056C43.9265 232.923 49.082 247.1 49.7265 248.389V231.634C49.7265 231.634 49.2685 231.119 49.2685 229.119C49.2685 228.096 49.7265 227.123 49.7265 227.123ZM53.594 243.234C54.4404 243.234 54.4404 246.288 54.4404 247.398C54.4404 247.541 54.4443 247.724 54.4488 247.935L54.4488 247.936C54.4795 249.366 54.5375 252.079 53.594 252.256C52.9187 252.081 52.9287 250.691 52.9445 248.511C52.947 248.16 52.9497 247.788 52.9497 247.398C52.9496 244.585 52.9497 243.234 53.594 243.234ZM76.1483 301.53C76.7686 300.119 73.3477 297.797 67.7711 295.433C59.3446 292.195 59.3446 293.129 59.3446 294.062C60.2685 296.618 61.7685 297.619 64.7683 299.618L64.7684 299.619C65.702 300.552 74.7684 302.619 76.1483 301.53ZM43.2826 287.7C44.5716 287.7 45.9893 288.473 46.5048 288.989C47.1493 289.633 43.9271 292.856 43.2826 292.856C42.7671 292.856 42.6383 288.989 43.2826 287.7Z" fill="black"/>
<path d="M75.2147 14.8366C78.9489 11.1087 97.3085 20.7393 106.022 26.0205C134.65 44.6604 190.916 83.6177 199.878 90.328C214.097 96.5146 234.764 108.578 240.595 115.854C267.74 146.152 309.103 177.74 336.893 204.815C347.234 218.997 353.697 223.732 345.295 243.494C336.893 263.256 330.821 339.382 372.44 383.382C389.513 401.432 448.631 409.069 460.767 408.137C472.903 407.205 491.574 396.021 500.91 394.157C508.378 392.666 527.049 388.876 534.517 386.702C544.973 382.974 560.967 375.518 572.792 369.926C580.261 367.13 601.172 364.893 613.868 367.13C629.738 369.926 644.675 385.77 651.21 389.497C656.438 392.48 661.479 393.847 663.346 394.157C678.282 396.953 681.083 397.885 682.017 400.681C679.216 405.341 674.362 409.069 669.881 409.069C664.279 409.069 650.276 408.137 638.14 409.069C629.178 412.797 607.644 414.972 597.998 415.593C561.59 415.593 527.049 417.016 499.042 425.845C484.853 430.319 455.166 447.592 442.096 455.669C431.762 461.86 397.775 486.029 353.41 498.541C297.588 514.284 229.69 518.112 220.847 518.112C204.977 518.112 121.892 511.589 107.889 509.725C93.8854 507.861 66.8127 508.793 50.9425 507.861C35.0723 506.929 34.1388 505.065 33.2052 502.269C32.2717 499.473 44.4077 495.745 40.6736 493.881C36.9394 492.017 26.6704 495.745 22.9363 495.745C19.2021 495.745 9.8667 496.677 9.8667 487.357C9.8667 478.037 33.2052 465.921 40.6736 463.125C48.1419 460.329 93.8854 460.329 102.287 458.465C110.689 456.601 121.892 448.213 129.36 445.417C136.828 442.621 173.236 436.097 175.104 432.369C176.971 428.641 173.236 423.981 175.104 419.321C176.971 414.661 187.24 403.477 187.24 398.817C187.24 394.158 179.771 393.225 177.904 390.43C176.037 387.634 177.904 380.178 177.904 376.45C177.904 372.722 167.635 365.266 166.702 357.81C165.955 351.845 175.104 343.519 179.771 340.102C170.436 341.034 162.968 341.034 157.366 335.442C146.164 324.258 159.233 219.875 157.366 216.147C155.499 212.419 142.43 206.827 142.43 203.099C142.43 199.371 154.566 197.507 154.566 196.575C154.566 195.643 131.227 194.711 130.294 190.983C129.547 188.001 134.961 182.906 137.762 180.731C134.028 179.799 108.822 170.479 106.955 160.227C105.899 154.428 110.689 150.908 109.756 148.112C108.822 145.316 100.42 144.384 98.5531 140.656C97.0595 137.673 99.1755 133.2 100.42 131.336C94.819 127.608 82.6829 123.88 83.6165 120.152C84.55 116.424 90.1513 112.696 86.4171 109.9C66.8126 107.104 62.4382 95.6814 63.0786 93.124C63.727 90.5345 72.483 90.1934 76.2061 90.2265C69.9681 89.0057 48.1419 77.1355 48.1419 74.4842C48.1419 71.6882 87.3507 74.4842 90.1513 74.4842C92.952 74.4842 43.4742 60.5043 45.3413 55.8443C47.2084 51.1844 108.822 60.5043 96.6862 58.6403C84.5502 56.7763 58.411 37.2045 60.278 33.4765C62.1451 29.7485 92.952 40.0004 96.6862 41.8644C100.42 43.7284 70.547 19.4966 75.2147 14.8366Z" fill="black"/>
</svg>
