<svg width="1019" height="537" viewBox="0 0 1019 537" fill="none" xmlns="http://www.w3.org/2000/svg">
<path fill-rule="evenodd" clip-rule="evenodd" d="M53.594 165.257V73.7465H49.7274V165.257C49.3756 165.826 49.0811 166.259 48.8185 166.644C47.9924 167.856 47.4833 168.603 46.5052 171.701C46.5052 174.412 47.5027 176.001 48.5384 177.651C49.2265 178.748 49.9314 179.871 50.3718 181.368C50.3718 182.657 49.7274 185.879 47.7941 189.101C45.8607 192.323 42.6386 201.99 41.9941 204.568C40.7052 206.501 33.7686 211.119 32.3275 211.012C32.0467 210.563 31.907 210.34 31.8266 210.097C31.747 209.856 31.7256 209.596 31.6831 209.079C31.6346 208.488 32.3112 207.76 33.0567 206.958C33.9334 206.014 34.9053 204.968 34.9053 203.923C34.9053 201.99 32.9318 197.903 29.7686 196.119C29.6027 196.025 29.4391 195.93 29.2759 195.836L29.2752 195.835L29.2745 195.835C27.1376 194.596 25.058 193.39 18.7943 195.545C12.7686 197.619 10.2686 200.619 8.48328 205.212C7.83884 207.145 7.83884 211.656 8.48328 213.59C9.12772 214.234 10.2555 214.879 11.3832 215.523C12.511 216.167 13.6388 216.812 14.2832 217.456C15.3143 218.487 15.5721 220.034 15.5721 220.678C15.401 220.935 15.1091 221.34 14.7384 221.853L14.7376 221.854C12.8743 224.436 9.02068 229.776 8.48328 233C8.48328 239.577 11.5 248 15.2832 258C18.3018 265.979 20.0495 268.59 22.5085 272.265L22.5112 272.269C22.671 272.507 22.8337 272.751 23 273C24.9332 275.9 30.3942 281.256 32.3275 281.9C32.0965 282.131 31.3686 282.528 30.5001 283.001L30.4994 283.001L30.4988 283.002L30.4986 283.002C28.9445 283.849 26.9409 284.94 26.5276 285.767C26.5276 286.002 26.506 286.777 26.4748 287.901C26.335 292.924 26.001 304.927 26.5276 307.033C27.8165 308.322 36.1942 310.9 36.8386 309.611C37.0195 309.249 37.2512 308.887 37.5194 308.469L37.5196 308.468C38.2068 307.395 39.1338 305.948 40.0608 303.167C41.0919 300.073 43.0682 297.152 43.9274 296.078C44.0676 295.903 44.2391 295.677 44.438 295.415C45.8958 293.494 48.8253 289.633 51.6607 289.633C53.2686 289.619 54.093 289.877 55.5273 291.567C56.0535 292.187 56.512 292.848 57.0156 293.574L57.0162 293.575L57.0163 293.575L57.0164 293.575C58.1793 295.251 59.583 297.275 62.6161 299.944C66.7686 303.167 73.3568 303.167 76.7938 303.167C77.8679 303.596 80.6604 304.584 83.2382 305.1L83.3047 305.3L83.3436 305.417C83.8859 307.056 84.8648 310.013 86.2686 312.119C87.9353 314.619 99.3492 325.722 107.727 333.455C111.957 337.904 113.299 341.151 113.527 341.833C113.722 342.418 113.858 343.181 114.007 344.013C114.348 345.93 114.757 348.218 116.105 349.566C117.422 350.883 120.234 351.602 122.301 352.13C123.268 352.378 124.071 352.583 124.482 352.788C125.127 353.111 126.416 353.916 127.704 354.722C128.993 355.527 130.282 356.333 130.927 356.655C132.216 357.299 139.304 357.299 140.593 356.655C141.882 356.011 146.393 352.788 145.749 351.5C145.104 350.211 136.082 344.411 132.86 343.122C130.543 342.195 127.558 338.601 125.346 335.937C124.482 334.897 123.736 333.998 123.193 333.455C121.26 333.455 119.971 332.811 118.682 332.166C117.393 331.522 99.3492 303.167 98.7047 301.878C98.2214 300.911 97.7381 298.857 97.2547 296.803C97.0936 296.118 96.9325 295.433 96.7714 294.789C96.4154 293.365 95.4694 292.334 94.5853 291.371C93.8689 290.59 93.1932 289.854 92.9048 288.989C92.5826 288.022 92.5826 287.539 92.5826 287.056C92.5826 286.572 92.5826 286.089 92.2603 285.122C91.7407 284.083 86.1938 280.53 83.0508 278.517L83.0499 278.517L83.0477 278.515L83.0384 278.509C82.289 278.029 81.6773 277.637 81.3049 277.389C81.9493 276.745 82.5938 276.422 83.2382 276.1C83.8826 275.778 84.5271 275.456 85.1715 274.811C85.4568 274.811 86.1384 274.843 87.0478 274.885L87.0554 274.885L87.0559 274.885H87.0561C90.2567 275.034 96.2646 275.313 97.7686 274.811C98.7399 273.392 99.116 272.189 99.4355 271.168C99.6094 270.612 99.7665 270.11 99.9936 269.656C100.651 270.241 101.579 271.11 102.618 272.085L102.619 272.086L102.619 272.086L102.621 272.087L102.621 272.088C104.636 273.977 107.069 276.259 108.769 277.619C111.493 279.798 116.851 282.239 120.812 284.044C122.306 284.725 123.602 285.315 124.482 285.767C124.37 286.477 124.376 286.505 124.406 286.662C124.434 286.804 124.482 287.05 124.482 288C124.965 292.011 125.769 292.789 129.5 293.5C132.587 293.5 133.729 293.111 136.013 292.333L136.014 292.333L136.014 292.333C136.32 292.229 136.646 292.118 137 292C138.252 291.69 139.379 291.816 140.632 291.956C141.88 292.096 143.253 292.25 145 292C149.231 290.382 151 288.5 151.269 287.119C149.08 285.048 147.059 284.615 144.332 284.03L144.331 284.03C143.609 283.875 142.837 283.709 142 283.5C141.689 283.472 141.392 283.445 141.109 283.419L141.109 283.419C137.963 283.134 136.516 283.002 135.153 282.591C133.991 282.241 132.891 281.687 130.852 280.661L130.769 280.619C130.553 280.49 130.364 280.375 130.198 280.275L130.197 280.275L130.197 280.274C129.262 279.709 129.031 279.57 128.887 279.632C128.841 279.652 128.803 279.694 128.753 279.749C128.666 279.845 128.542 279.982 128.269 280.119C127.46 279.455 124.626 276.861 120.973 273.518L120.972 273.517L120.972 273.517C112.543 265.803 99.7547 254.099 97.4158 252.9C95.3536 251.869 90.9714 252.471 89.0381 252.9C88.9079 252.764 88.8406 252.577 88.7636 252.363C88.6811 252.134 88.5875 251.874 88.3936 251.612C86.8893 251.612 83.4097 252.489 80.0041 253.349L80.0039 253.349C77.5739 253.962 75.1816 254.565 73.5715 254.834C69.7049 255.478 64.7686 255.266 62.6161 254.189C59.5882 252.675 58.1331 249.154 57.0224 246.466C56.7217 245.738 56.4463 245.072 56.1717 244.523C55.1406 242.461 53.2686 232.119 53.2686 227.119V212.619C53.2686 207.119 53.2686 192.119 54.2384 189.745C54.5764 188.918 55.015 187.479 55.4527 186.043L55.4527 186.042C55.9618 184.372 56.4696 182.705 56.8162 182.012C57.7686 177.619 58.2686 173.619 57.7686 170.119C56.2686 167.619 55.2686 166.619 53.594 165.257ZM49.7265 227.123V214.879C47.7932 218.316 43.9265 225.963 43.9265 229.056C43.9265 232.923 49.082 247.101 49.7265 248.389V231.634C49.7265 231.634 49.2685 231.119 49.2685 229.119C49.2685 228.096 49.7265 227.123 49.7265 227.123ZM53.594 243.234C54.4404 243.234 54.4404 246.288 54.4404 247.398C54.4404 247.541 54.4443 247.724 54.4488 247.935L54.4488 247.936C54.4795 249.366 54.5375 252.079 53.594 252.256C52.9187 252.081 52.9287 250.691 52.9445 248.511C52.947 248.16 52.9497 247.788 52.9497 247.398C52.9496 244.585 52.9497 243.234 53.594 243.234ZM76.1483 301.53C76.7686 300.119 73.3477 297.797 67.7711 295.433C59.3446 292.195 59.3446 293.129 59.3446 294.062C60.2685 296.619 61.7685 297.619 64.7683 299.618L64.7684 299.619C65.702 300.552 74.7684 302.619 76.1483 301.53ZM43.2826 287.7C44.5716 287.7 45.9893 288.474 46.5048 288.989C47.1493 289.633 43.9271 292.856 43.2826 292.856C42.7671 292.856 42.6383 288.989 43.2826 287.7Z" fill="#EAAB00"/>
</svg>
