<svg xmlns="http://www.w3.org/2000/svg" version="1.1" xmlns:xlink="http://www.w3.org/1999/xlink" xmlns:svgjs="http://svgjs.com/svgjs" width="675" height="675"><svg width="675" height="675" viewBox="0 -85 675 675" fill="none" xmlns="http://www.w3.org/2000/svg">
<path fill-rule="evenodd" clip-rule="evenodd" d="M45.594 151.257V59.7465H41.7274V151.257C41.3756 151.826 41.0811 152.259 40.8185 152.644C39.9924 153.856 39.4833 154.603 38.5052 157.701C38.5052 160.412 39.5027 162.001 40.5384 163.651C41.2265 164.748 41.9314 165.871 42.3718 167.368C42.3718 168.657 41.7274 171.879 39.7941 175.101C37.8607 178.323 34.6386 187.99 33.9941 190.568C32.7052 192.501 25.7686 197.119 24.3275 197.012C24.0467 196.563 23.907 196.34 23.8266 196.097C23.747 195.856 23.7256 195.596 23.6831 195.079C23.6346 194.488 24.3112 193.76 25.0567 192.958C25.9334 192.014 26.9053 190.968 26.9053 189.923C26.9053 187.99 24.9318 183.903 21.7686 182.119C21.6027 182.025 21.4391 181.93 21.2759 181.836L21.2752 181.835L21.2745 181.835C19.1376 180.596 17.058 179.39 10.7943 181.545C4.76855 183.619 2.26855 186.619 0.483276 191.212C-0.161163 193.145 -0.161163 197.656 0.483276 199.59C1.12772 200.234 2.25548 200.879 3.38324 201.523C4.51102 202.167 5.63878 202.812 6.28322 203.456C7.31432 204.487 7.5721 206.034 7.5721 206.678C7.40096 206.935 7.1091 207.34 6.73839 207.853L6.73756 207.854C4.87431 210.436 1.02068 215.776 0.483276 219C0.483276 225.577 3.5 234 7.28322 244C10.3018 251.979 12.0495 254.59 14.5085 258.265L14.5112 258.269C14.671 258.507 14.8337 258.751 15 259C16.9332 261.9 22.3942 267.256 24.3275 267.9C24.0965 268.131 23.3686 268.528 22.5001 269.001L22.4994 269.001L22.4988 269.002L22.4986 269.002C20.9445 269.849 18.9409 270.94 18.5276 271.767C18.5276 272.002 18.506 272.777 18.4748 273.901C18.335 278.924 18.001 290.927 18.5276 293.033C19.8165 294.322 28.1942 296.9 28.8386 295.611C29.0195 295.249 29.2512 294.887 29.5194 294.469L29.5196 294.468C30.2068 293.395 31.1338 291.948 32.0608 289.167C33.0919 286.073 35.0682 283.152 35.9274 282.078C36.0676 281.903 36.2391 281.677 36.438 281.415C37.8958 279.494 40.8253 275.633 43.6607 275.633C45.2686 275.619 46.093 275.877 47.5273 277.567C48.0535 278.187 48.512 278.848 49.0156 279.574L49.0162 279.575L49.0163 279.575L49.0164 279.575C50.1793 281.251 51.583 283.275 54.6161 285.944C58.7686 289.167 65.3568 289.167 68.7938 289.167C69.8679 289.596 72.6604 290.584 75.2382 291.1L75.3047 291.3L75.3436 291.417C75.8859 293.056 76.8648 296.013 78.2686 298.119C79.9353 300.619 91.3492 311.722 99.7269 319.455C103.957 323.904 105.299 327.151 105.527 327.833C105.722 328.418 105.858 329.181 106.007 330.013C106.348 331.93 106.757 334.218 108.105 335.566C109.422 336.883 112.234 337.602 114.301 338.13C115.268 338.378 116.071 338.583 116.482 338.788C117.127 339.111 118.416 339.916 119.704 340.722C120.993 341.527 122.282 342.333 122.927 342.655C124.216 343.299 131.304 343.299 132.593 342.655C133.882 342.011 138.393 338.788 137.749 337.5C137.104 336.211 128.082 330.411 124.86 329.122C122.543 328.195 119.558 324.601 117.346 321.937C116.482 320.897 115.736 319.998 115.193 319.455C113.26 319.455 111.971 318.811 110.682 318.166C109.393 317.522 91.3492 289.167 90.7047 287.878C90.2214 286.911 89.7381 284.857 89.2547 282.803C89.0936 282.118 88.9325 281.433 88.7714 280.789C88.4154 279.365 87.4694 278.334 86.5853 277.371C85.8689 276.59 85.1932 275.854 84.9048 274.989C84.5826 274.022 84.5826 273.539 84.5826 273.056C84.5826 272.572 84.5826 272.089 84.2603 271.122C83.7407 270.083 78.1938 266.53 75.0508 264.517L75.0499 264.517L75.0477 264.515L75.0384 264.509C74.289 264.029 73.6773 263.637 73.3049 263.389C73.9493 262.745 74.5938 262.422 75.2382 262.1C75.8826 261.778 76.5271 261.456 77.1715 260.811C77.4568 260.811 78.1384 260.843 79.0478 260.885L79.0554 260.885L79.0559 260.885H79.0561C82.2567 261.034 88.2646 261.313 89.7686 260.811C90.7399 259.392 91.116 258.189 91.4355 257.168C91.6094 256.612 91.7665 256.11 91.9936 255.656C92.6514 256.241 93.579 257.11 94.6181 258.085L94.6193 258.086L94.6194 258.086L94.6207 258.087L94.621 258.088C96.6355 259.977 99.0687 262.259 100.769 263.619C103.493 265.798 108.851 268.239 112.812 270.044C114.306 270.725 115.602 271.315 116.482 271.767C116.37 272.477 116.376 272.505 116.406 272.662C116.434 272.804 116.482 273.05 116.482 274C116.965 278.011 117.769 278.789 121.5 279.5C124.587 279.5 125.729 279.111 128.013 278.333L128.014 278.333L128.014 278.333C128.32 278.229 128.646 278.118 129 278C130.252 277.69 131.379 277.816 132.632 277.956C133.88 278.096 135.253 278.25 137 278C141.231 276.382 143 274.5 143.269 273.119C141.08 271.048 139.059 270.615 136.332 270.03L136.331 270.03C135.609 269.875 134.837 269.709 134 269.5C133.689 269.472 133.392 269.445 133.109 269.419L133.109 269.419C129.963 269.134 128.516 269.002 127.153 268.591C125.991 268.241 124.891 267.687 122.852 266.661L122.769 266.619C122.553 266.49 122.364 266.375 122.198 266.275L122.197 266.275L122.197 266.274C121.262 265.709 121.031 265.57 120.887 265.632C120.841 265.652 120.803 265.694 120.753 265.749C120.666 265.845 120.542 265.982 120.269 266.119C119.46 265.455 116.626 262.861 112.973 259.518L112.972 259.517L112.972 259.517C104.543 251.803 91.7547 240.099 89.4158 238.9C87.3536 237.869 82.9714 238.471 81.0381 238.9C80.9079 238.764 80.8406 238.577 80.7636 238.363C80.6811 238.134 80.5875 237.874 80.3936 237.612C78.8893 237.612 75.4097 238.489 72.0041 239.349L72.0039 239.349C69.5739 239.962 67.1816 240.565 65.5715 240.834C61.7049 241.478 56.7686 241.266 54.6161 240.189C51.5882 238.675 50.1331 235.154 49.0224 232.466C48.7217 231.738 48.4463 231.072 48.1717 230.523C47.1406 228.461 45.2686 218.119 45.2686 213.119V198.619C45.2686 193.119 45.2686 178.119 46.2384 175.745C46.5764 174.918 47.015 173.479 47.4527 172.043L47.4527 172.042C47.9618 170.372 48.4696 168.705 48.8162 168.012C49.7686 163.619 50.2686 159.619 49.7686 156.119C48.2686 153.619 47.2686 152.619 45.594 151.257ZM41.7265 213.123V200.879C39.7932 204.316 35.9265 211.963 35.9265 215.056C35.9265 218.923 41.082 233.101 41.7265 234.389V217.634C41.7265 217.634 41.2685 217.119 41.2685 215.119C41.2685 214.096 41.7265 213.123 41.7265 213.123ZM45.594 229.234C46.4404 229.234 46.4404 232.288 46.4404 233.398C46.4404 233.541 46.4443 233.724 46.4488 233.935L46.4488 233.936C46.4795 235.366 46.5375 238.079 45.594 238.256C44.9187 238.081 44.9287 236.691 44.9445 234.511C44.947 234.16 44.9497 233.788 44.9497 233.398C44.9496 230.585 44.9497 229.234 45.594 229.234ZM68.1483 287.53C68.7686 286.119 65.3477 283.797 59.7711 281.433C51.3446 278.195 51.3446 279.129 51.3446 280.062C52.2685 282.619 53.7685 283.619 56.7683 285.618L56.7684 285.619C57.702 286.552 66.7684 288.619 68.1483 287.53ZM35.2826 273.7C36.5716 273.7 37.9893 274.474 38.5048 274.989C39.1493 275.633 35.9271 278.856 35.2826 278.856C34.7671 278.856 34.6383 274.989 35.2826 273.7Z" fill="#EAAB00"></path>
<path class="goose" d="M67.2147 0.83664C70.9489 -2.89133 89.3086 6.73926 98.0216 12.0205C126.65 30.6604 182.916 69.6177 191.878 76.328C206.097 82.5146 226.764 94.5782 232.595 101.854C259.74 132.152 301.103 163.74 328.893 190.815C339.234 204.997 345.697 209.732 337.295 229.494C328.893 249.256 322.821 325.382 364.44 369.382C381.513 387.432 440.631 395.069 452.767 394.137C464.903 393.205 483.574 382.021 492.91 380.157C500.378 378.666 519.049 374.876 526.517 372.702C536.973 368.974 552.967 361.518 564.792 355.926C572.261 353.13 593.172 350.893 605.868 353.13C621.738 355.926 636.675 371.77 643.21 375.497C648.438 378.48 653.479 379.847 655.346 380.157C670.282 382.953 673.083 383.885 674.017 386.681C671.216 391.341 666.362 395.069 661.881 395.069C656.279 395.069 642.276 394.137 630.14 395.069C621.178 398.797 599.644 400.972 589.998 401.593C553.59 401.593 519.049 403.016 491.042 411.845C476.853 416.319 447.166 433.592 434.096 441.669C423.762 447.86 389.775 472.029 345.41 484.541C289.588 500.284 221.69 504.112 212.847 504.112C196.977 504.112 113.892 497.589 99.8885 495.725C85.8854 493.861 58.8127 494.793 42.9425 493.861C27.0723 492.928 26.1388 491.065 25.2052 488.269C24.2717 485.473 36.4077 481.745 32.6736 479.881C28.9394 478.017 18.6704 481.745 14.9363 481.745C11.2021 481.745 1.8667 482.677 1.8667 473.357C1.8667 464.037 25.2052 451.921 32.6736 449.125C40.1419 446.329 85.8854 446.329 94.2873 444.465C102.689 442.601 113.892 434.213 121.36 431.417C128.828 428.621 165.236 422.097 167.104 418.369C168.971 414.641 165.236 409.981 167.104 405.321C168.971 400.661 179.24 389.477 179.24 384.817C179.24 380.157 171.771 379.225 169.904 376.43C168.037 373.634 169.904 366.178 169.904 362.45C169.904 358.722 159.635 351.266 158.702 343.81C157.955 337.845 167.104 329.519 171.771 326.102C162.436 327.034 154.967 327.034 149.366 321.442C138.164 310.258 151.233 205.875 149.366 202.147C147.499 198.419 134.43 192.827 134.43 189.099C134.43 185.371 146.566 183.507 146.566 182.575C146.566 181.643 123.227 180.711 122.294 176.983C121.547 174.001 126.961 168.906 129.762 166.731C126.028 165.799 100.822 156.479 98.955 146.227C97.8988 140.428 102.689 136.908 101.756 134.112C100.822 131.316 92.4202 130.384 90.5531 126.656C89.0595 123.673 91.1755 119.2 92.4202 117.336C86.819 113.608 74.6829 109.88 75.6165 106.152C76.55 102.424 82.1513 98.6958 78.4171 95.8999C58.8126 93.1039 54.4382 81.6814 55.0786 79.124C55.727 76.5345 64.483 76.1934 68.2061 76.2265C61.9681 75.0057 40.1419 63.1355 40.1419 60.4842C40.1419 57.6882 79.3507 60.4842 82.1513 60.4842C84.952 60.4842 35.4742 46.5043 37.3413 41.8443C39.2084 37.1843 100.822 46.5043 88.6862 44.6403C76.5502 42.7763 50.411 23.2045 52.278 19.4765C54.1451 15.7485 84.952 26.0004 88.6862 27.8644C92.4203 29.7284 62.547 5.4966 67.2147 0.83664Z" fill="black"></path>
</svg><style>
  @media (prefers-color-scheme: dark) {
    .goose { fill: white; }
  }
</style></svg>
