<?xml version="1.0" standalone="no"?>
<!DOCTYPE svg PUBLIC "-//W3C//DTD SVG 20010904//EN"
 "http://www.w3.org/TR/2001/REC-SVG-20010904/DTD/svg10.dtd">
<svg version="1.0" xmlns="http://www.w3.org/2000/svg"
 width="675.000000pt" height="675.000000pt" viewBox="0 0 675.000000 675.000000"
 preserveAspectRatio="xMidYMid meet">
<metadata>
Created by potrace 1.14, written by Peter Selinger 2001-2017
</metadata>
<g transform="translate(0.000000,675.000000) scale(0.100000,-0.100000)"
fill="#000000" stroke="none">
<path d="M670 5880 c0 -31 37 -79 137 -176 l83 -82 -85 29 c-46 16 -95 31
-107 33 -13 3 -43 10 -67 16 -111 27 -133 13 -72 -47 62 -62 143 -120 230
-165 l56 -28 -55 6 c-30 4 -68 8 -85 10 -37 4 -172 15 -240 18 -27 2 -61 -1
-75 -6 -25 -9 -25 -10 -5 -25 11 -8 36 -22 55 -30 19 -7 44 -18 55 -22 11 -5
31 -13 45 -19 14 -6 43 -16 65 -22 22 -6 49 -15 60 -20 19 -8 91 -32 108 -36
4 -1 10 -3 15 -4 4 -1 11 -2 15 -1 5 1 6 -3 2 -9 -3 -6 -11 -8 -16 -5 -11 8
-346 14 -370 8 -14 -4 -16 -10 -10 -22 5 -9 8 -213 8 -455 0 -398 -2 -441 -18
-473 -14 -27 -15 -41 -7 -64 5 -16 14 -32 19 -35 12 -7 12 -67 0 -80 -10 -11
-62 -141 -66 -164 -3 -23 -86 -83 -98 -71 -7 7 -4 19 7 36 10 15 14 34 11 46
-8 24 -51 69 -68 70 -7 0 -23 2 -37 3 -49 6 -120 -38 -149 -93 -21 -38 -11
-111 14 -111 8 0 23 -12 34 -26 19 -25 19 -27 3 -52 -9 -15 -19 -29 -23 -32
-12 -9 -40 -71 -35 -78 2 -4 7 -28 10 -54 4 -26 18 -77 32 -115 14 -37 27 -72
28 -78 8 -39 67 -136 113 -185 32 -35 49 -60 40 -60 -31 0 -42 -31 -43 -129
-1 -53 1 -102 3 -108 5 -11 62 -33 89 -33 6 0 27 33 48 74 53 106 117 157 146
115 59 -85 108 -117 180 -120 67 -3 97 -18 115 -57 10 -20 73 -91 140 -157
124 -122 147 -153 160 -213 5 -26 15 -37 43 -49 21 -8 58 -26 83 -39 65 -33
127 -32 164 2 l28 26 -29 23 c-16 13 -48 33 -72 45 -44 22 -112 83 -112 100 0
4 -13 11 -28 15 -33 7 -51 29 -161 200 -43 66 -81 135 -84 153 -4 19 -15 46
-25 60 -11 15 -22 38 -25 52 -4 16 -26 38 -60 61 -50 32 -53 37 -36 47 10 7
47 12 82 12 59 0 65 2 76 26 l12 27 27 -25 c15 -14 38 -35 52 -47 14 -12 57
-38 97 -57 59 -28 71 -37 68 -54 -5 -27 31 -60 59 -53 11 2 53 7 91 10 63 5
114 25 115 45 0 16 -48 37 -98 43 -79 9 -140 42 -233 127 -148 135 -164 149
-188 166 -31 21 -146 24 -206 7 -41 -13 -86 -18 -132 -16 -46 2 -87 70 -109
179 -18 97 -11 453 10 512 9 25 19 70 22 100 5 47 2 59 -18 86 l-23 31 1 414
c2 465 2 448 12 433 4 -5 46 -30 94 -55 49 -24 88 -46 88 -49 0 -4 -10 -7 -22
-7 -53 -3 -68 -8 -74 -26 -7 -21 38 -95 64 -104 9 -4 19 -10 22 -13 5 -6 113
-50 125 -50 3 0 9 0 14 0 21 0 19 -32 -4 -66 -31 -46 -23 -59 67 -104 38 -19
71 -38 73 -41 2 -3 -1 -22 -7 -42 -9 -30 -8 -40 6 -61 9 -14 20 -25 24 -23 4
1 24 -8 44 -20 38 -23 42 -38 19 -82 -21 -38 -13 -79 24 -120 35 -39 146 -104
220 -129 52 -18 52 -19 27 -43 -12 -11 -29 -31 -38 -44 -20 -30 -7 -51 34 -59
46 -9 95 -17 141 -22 51 -5 62 -11 35 -19 -10 -4 -38 -15 -62 -26 -37 -16 -41
-22 -33 -38 6 -10 40 -40 76 -65 36 -26 66 -55 66 -64 3 -38 -3 -161 -16 -322
-1 -19 -6 -80 -11 -135 -4 -55 -8 -221 -8 -370 -1 -283 3 -318 45 -366 23 -26
112 -48 174 -42 l39 3 -35 -32 c-60 -56 -89 -102 -89 -140 0 -34 18 -65 95
-163 12 -15 14 -35 9 -91 l-6 -72 43 -28 c24 -16 47 -33 52 -39 15 -20 -4 -68
-59 -146 -47 -68 -56 -86 -56 -124 0 -24 3 -49 7 -54 17 -28 -54 -70 -145 -87
-8 -2 -73 -17 -145 -35 -71 -17 -134 -32 -140 -33 -29 -6 -85 -31 -85 -38 0
-4 -5 -8 -11 -8 -6 0 -36 -15 -67 -33 -111 -63 -140 -68 -467 -82 -255 -11
-281 -16 -385 -73 -135 -73 -210 -145 -210 -199 0 -33 28 -72 52 -74 7 -1 28
-3 45 -5 18 -2 61 2 95 9 117 24 148 9 78 -37 -45 -30 -48 -36 -23 -58 35 -31
99 -37 408 -43 196 -4 303 -9 400 -20 22 -2 76 -7 120 -11 44 -3 96 -8 115
-10 45 -4 134 -12 235 -19 44 -4 100 -8 125 -10 197 -15 289 -19 455 -19 162
0 317 8 376 19 8 2 48 6 88 10 40 3 82 8 94 11 12 2 41 6 64 9 76 9 105 14
378 61 17 3 77 17 135 31 58 13 113 26 123 28 10 2 57 16 105 30 260 79 480
185 787 377 267 167 513 297 646 341 41 14 116 33 165 42 49 10 97 19 108 21
10 2 44 6 75 9 31 3 76 8 101 11 64 6 225 13 440 19 102 2 196 6 210 9 14 2
47 7 73 11 56 7 67 9 122 20 46 10 44 9 69 20 10 4 75 7 145 7 200 -3 214 -2
248 16 22 12 63 59 63 72 0 12 -72 38 -141 50 -35 6 -84 18 -108 27 -35 14
-143 87 -246 168 -37 30 -140 73 -195 84 -51 9 -216 7 -285 -3 -16 -3 -45 -7
-63 -10 -31 -5 -124 -44 -194 -82 -16 -8 -28 -12 -28 -7 0 4 -4 3 -8 -3 -23
-33 -287 -118 -467 -150 -16 -2 -45 -9 -62 -14 -18 -4 -33 -6 -33 -4 0 3 -10
-1 -22 -8 -13 -6 -27 -13 -33 -14 -5 -2 -71 -28 -145 -58 l-135 -56 -125 4
c-69 2 -132 6 -140 9 -8 3 -33 8 -55 11 -44 6 -67 10 -168 32 -38 8 -73 17
-78 20 -5 3 -21 7 -35 10 -77 14 -258 95 -304 136 -50 45 -122 138 -166 214
-42 74 -102 208 -109 243 -2 9 -8 28 -14 43 -8 22 -21 78 -46 202 -18 84 -25
393 -12 495 13 107 32 187 57 246 32 76 39 153 18 202 -15 35 -69 117 -80 121
-4 2 -8 8 -8 14 0 16 -148 153 -424 392 -32 28 -71 62 -86 76 -16 14 -49 43
-75 65 -96 83 -256 237 -375 360 -81 85 -184 157 -332 233 -81 42 -172 96
-188 112 -3 3 -34 25 -70 49 -36 25 -67 47 -70 50 -3 4 -39 28 -80 56 -41 27
-79 53 -85 58 -5 4 -26 18 -45 30 -19 13 -84 57 -145 99 -365 251 -523 341
-617 354 -45 6 -48 5 -48 -16z m-254 -2156 c1 -172 -4 -176 -42 -39 -17 59
-15 85 10 138 14 32 27 57 29 57 1 0 3 -70 3 -156z m49 -164 c1 -17 -1 -33 -6
-36 -5 -3 -9 14 -9 37 0 47 11 47 15 -1z m-85 -414 c0 -7 -7 -19 -15 -26 -13
-11 -15 -8 -15 14 0 16 5 26 15 26 8 0 15 -6 15 -14z m232 -70 c34 -17 64 -36
66 -42 4 -16 -65 -12 -98 5 -33 18 -70 52 -65 61 8 13 35 6 97 -24z"/>
</g>
</svg>
