<?xml version="1.0" standalone="no"?>
<!DOCTYPE svg PUBLIC "-//W3C//DTD SVG 20010904//EN"
 "http://www.w3.org/TR/2001/REC-SVG-20010904/DTD/svg10.dtd">
<svg version="1.0" xmlns="http://www.w3.org/2000/svg"
 width="1000.000000pt" height="1000.000000pt" viewBox="0 0 1000.000000 1000.000000"
 preserveAspectRatio="xMidYMid meet">
<metadata>
Created by potrace 1.14, written by Peter Selinger 2001-2017
</metadata>
<g transform="translate(0.000000,1000.000000) scale(0.100000,-0.100000)"
fill="#000000" stroke="none">
<path d="M655 9768 c3 -128 8 -323 10 -433 16 -727 28 -1186 40 -1460 3 -66 7
-167 10 -225 4 -99 9 -189 20 -355 3 -38 7 -113 10 -165 3 -52 8 -111 10 -130
3 -19 7 -75 10 -125 3 -49 8 -101 11 -115 2 -14 7 -59 10 -100 3 -41 7 -88 9
-105 2 -16 6 -52 9 -80 3 -27 7 -68 10 -90 3 -22 8 -68 12 -103 3 -35 8 -73
10 -85 3 -12 7 -40 10 -62 2 -22 6 -53 9 -70 2 -16 7 -46 9 -65 15 -104 19
-127 22 -145 1 -11 5 -33 8 -50 2 -16 7 -46 11 -65 3 -19 8 -48 11 -65 5 -28
37 -204 49 -270 3 -16 13 -64 22 -105 8 -41 17 -84 19 -95 4 -23 6 -31 75
-315 29 -118 57 -217 61 -218 5 -2 6 -7 4 -11 -3 -4 16 -74 41 -157 25 -82 46
-153 48 -159 1 -5 5 -17 8 -25 3 -8 7 -24 10 -35 9 -36 97 -289 112 -322 8
-17 15 -33 15 -36 0 -3 5 -18 12 -34 6 -15 12 -34 14 -41 1 -8 9 -28 17 -45 9
-18 30 -68 47 -112 17 -44 43 -104 56 -133 13 -29 24 -56 24 -60 0 -4 16 -38
34 -75 19 -37 35 -70 35 -73 0 -2 18 -43 40 -89 23 -46 41 -88 41 -94 0 -5 6
-16 12 -23 7 -7 39 -65 70 -128 32 -63 73 -142 91 -175 19 -33 47 -82 62 -110
15 -27 47 -83 71 -122 24 -40 44 -75 44 -77 0 -3 21 -37 48 -78 26 -40 54 -85
61 -100 8 -16 18 -28 21 -28 4 0 13 -13 20 -30 7 -16 16 -30 21 -30 5 0 9 -5
9 -10 0 -10 38 -69 51 -80 3 -3 12 -16 19 -29 7 -14 17 -30 22 -35 4 -6 32
-42 60 -81 29 -38 55 -71 60 -73 4 -2 8 -9 8 -15 0 -7 15 -28 33 -47 17 -19
44 -51 58 -70 15 -19 35 -45 45 -56 11 -12 39 -45 63 -74 166 -195 475 -499
665 -653 21 -18 43 -37 50 -43 6 -5 47 -39 91 -73 44 -35 82 -67 83 -72 2 -5
8 -9 12 -9 5 0 44 -26 87 -59 164 -123 539 -370 603 -398 8 -3 26 -14 40 -23
41 -28 253 -143 375 -204 39 -19 132 -64 208 -100 l139 -66 65 30 c35 17 69
30 74 30 5 0 9 5 9 10 0 6 3 9 8 8 4 -1 57 22 117 52 61 30 113 53 118 52 4
-1 7 2 7 6 0 5 24 19 53 33 28 13 54 27 57 30 3 3 23 14 45 25 22 10 42 20 45
23 3 4 31 20 62 36 32 17 58 34 58 39 0 5 3 7 6 3 4 -3 26 7 50 23 23 17 45
30 49 30 4 0 26 14 50 30 24 17 48 30 54 30 6 0 11 4 11 9 0 5 10 13 22 17 12
3 26 10 32 15 31 25 107 79 111 79 2 0 25 15 51 33 25 17 56 39 69 47 40 26
179 127 202 147 12 10 34 27 49 38 32 23 87 67 94 75 3 4 15 13 28 22 12 8 40
32 62 52 21 20 43 36 49 36 5 0 11 4 13 8 2 5 43 44 93 88 103 91 384 370 465
463 30 35 67 77 83 95 44 50 49 56 117 141 36 45 74 94 85 110 11 15 30 39 43
53 12 14 22 29 22 33 0 5 8 17 18 27 10 10 59 81 109 157 51 77 97 145 103
152 5 7 10 14 10 17 0 2 23 41 51 86 28 45 60 99 72 119 109 190 158 278 209
381 24 47 45 87 48 90 7 6 100 199 98 203 -1 1 5 13 12 27 8 14 15 27 15 30 1
3 23 49 48 104 26 54 47 103 47 108 0 6 6 22 14 36 24 48 96 225 95 235 0 1
11 27 24 57 13 30 34 87 47 125 12 39 28 76 34 84 6 8 9 15 7 15 -4 1 34 125
49 161 9 21 23 66 23 75 0 3 13 42 28 88 15 45 25 82 22 82 -3 0 -1 6 5 12 6
7 11 16 11 21 1 4 1 8 2 10 0 1 2 9 4 17 2 8 13 49 25 90 11 41 23 82 25 91 2
9 21 88 43 175 22 88 46 186 53 219 7 33 13 62 14 65 1 3 5 25 10 50 5 25 9
47 10 50 2 6 16 79 21 105 2 11 13 70 25 130 12 61 23 121 25 135 11 67 14 88
20 125 7 46 12 70 14 70 0 0 3 18 5 40 3 40 12 103 19 140 2 11 7 49 11 85 4
36 8 72 10 80 2 8 6 44 10 80 3 36 8 78 11 93 7 43 25 226 28 280 0 15 3 27 6
27 3 0 5 19 5 43 1 23 5 85 9 137 14 163 16 183 21 255 5 81 15 242 20 330 2
33 4 60 5 60 0 0 3 54 5 120 2 66 6 167 9 225 13 279 18 443 30 1015 6 251 12
517 21 893 l6 222 -4351 0 -4350 0 5 -232z"/>
</g>
</svg>
